<svg xmlns="http://www.w3.org/2000/svg" viewBox="0 0 146 96.98"><defs><style>.cls-1{fill:#4b4b4b;}</style></defs><g id="レイヤー_2" data-name="レイヤー 2"><g id="レイヤー_1-2" data-name="レイヤー 1"><path d="M7.2,95.13c.09-.22.47-1.27,1.14-3.13l2.14-6.09a8,8,0,0,0,.56-2.3.85.85,0,0,0-.06-.35.79.79,0,0,0-.5-.4,7.67,7.67,0,0,0-.84-.11.22.22,0,0,1-.2-.25c0-.13.07-.19.21-.19l2.22.1c.46,0,1.1,0,1.92-.1.12,0,.17.06.17.19s-.06.23-.18.25a2.09,2.09,0,0,0-1.28.56,11.23,11.23,0,0,0-1.18,2.6L8.7,93C8,94.88,7.58,96.09,7.4,96.63a3.4,3.4,0,0,1-.68.31c-.06,0-.11,0-.14-.12-.32-1-.76-2.33-1.32-3.89l-2.58-7a10.85,10.85,0,0,0-1.22-2.72,2,2,0,0,0-1.28-.44c-.12,0-.18-.08-.18-.23s.06-.21.18-.21c.8.06,1.55.1,2.26.1.38,0,1.12,0,2.23-.1.12,0,.17.07.17.21a.21.21,0,0,1-.2.23c-.85.09-1.32.25-1.43.48a1.23,1.23,0,0,0,0,.31,8.67,8.67,0,0,0,.65,2.35l2.22,6C6.43,93,6.82,94.09,7.2,95.13Z"/><path d="M15.88,96.21a3.7,3.7,0,0,0,.85-.14.86.86,0,0,0,.51-.39,2.37,2.37,0,0,0,.25-1.08q0-.42,0-1.65V85.87c0-1.07,0-1.72,0-2a1.64,1.64,0,0,0-.2-.66,1.07,1.07,0,0,0-.66-.4l-.86-.11c-.11,0-.16-.1-.16-.23s.05-.21.16-.21c1.1.06,1.86.1,2.28.1s1.22,0,2.22-.1a.18.18,0,0,1,.2.21.21.21,0,0,1-.19.23,6.64,6.64,0,0,0-.86.14,1.09,1.09,0,0,0-.54.37,2.51,2.51,0,0,0-.22,1.08c0,.22,0,.73,0,1.53V93c0,1.15,0,1.84,0,2.08a1.55,1.55,0,0,0,.19.65,1,1,0,0,0,.64.42,6.72,6.72,0,0,0,.84.11.21.21,0,0,1,.2.23.17.17,0,0,1-.19.19c-.93,0-1.69-.07-2.29-.07s-1.29,0-2.17.07c-.11,0-.17-.06-.17-.19A.21.21,0,0,1,15.88,96.21Z"/><path d="M31.38,82.35q.09,1.53.24,3.12a.13.13,0,0,1,0,0c0,.08-.07.14-.21.16h0a.17.17,0,0,1-.18-.15,3.61,3.61,0,0,0-1.32-2.31A3.1,3.1,0,0,0,28,82.6a2.7,2.7,0,0,0-2.2.88,2.46,2.46,0,0,0-.57,1.64,2.54,2.54,0,0,0,.5,1.61,5.24,5.24,0,0,0,1.8,1.32l1,.5a10.29,10.29,0,0,1,2.57,1.64,3.46,3.46,0,0,1,1.14,2.57,4.2,4.2,0,0,1-1,2.88A4.64,4.64,0,0,1,27.57,97a9.07,9.07,0,0,1-3.41-.69,24.84,24.84,0,0,1-.73-3.22.13.13,0,0,1,0-.06q0-.1.18-.15h.1a.2.2,0,0,1,.17.14,5.44,5.44,0,0,0,1.7,2.61,3.49,3.49,0,0,0,2.21.78,3.19,3.19,0,0,0,2.6-1A2.8,2.8,0,0,0,31,93.46a3.15,3.15,0,0,0-.89-2.28A7.94,7.94,0,0,0,28,89.75l-.86-.44a7.8,7.8,0,0,1-2.22-1.5A3.21,3.21,0,0,1,24,85.57,3.34,3.34,0,0,1,25.17,83,4.14,4.14,0,0,1,28,82a5,5,0,0,1,1.49.21,4.79,4.79,0,0,0,1.32.19A2.76,2.76,0,0,0,31.38,82.35Z"/><path d="M46.91,82.5c.05.74.15,1.81.31,3.23a.28.28,0,0,1,0,.09.2.2,0,0,1-.17.19H47c-.09,0-.15-.07-.2-.2a5.18,5.18,0,0,0-1.68-2.39,4.84,4.84,0,0,0-2.9-.8,4.77,4.77,0,0,0-4.06,2.12,7.75,7.75,0,0,0-1.36,4.69,7,7,0,0,0,1.72,4.9A4.9,4.9,0,0,0,42.27,96a6,6,0,0,0,3.34-.89,6.33,6.33,0,0,0,1.89-2c.06-.11.13-.16.2-.16a.41.41,0,0,1,.16.05c.11,0,.16.11.16.19a.41.41,0,0,1-.08.19A6.16,6.16,0,0,1,42.23,97a6.25,6.25,0,0,1-5.11-2.38,7.79,7.79,0,0,1-1.68-5.1,7.54,7.54,0,0,1,2.14-5.62A6.38,6.38,0,0,1,42.26,82a9.24,9.24,0,0,1,2.32.27,7.56,7.56,0,0,0,1.7.28A3.48,3.48,0,0,0,46.91,82.5Z"/><path d="M58.46,90.83c-.53,0-1.3,0-2.31,0-1.17,0-2.08,0-2.73,0l-.88,2.42A7.13,7.13,0,0,0,52,95.33a1,1,0,0,0,.06.37.8.8,0,0,0,.53.4,7.86,7.86,0,0,0,.87.11.21.21,0,0,1,.21.23c0,.13-.07.19-.21.19-.77,0-1.43,0-2,0s-1.4,0-2.09,0c-.12,0-.18-.06-.18-.19a.21.21,0,0,1,.18-.23,1.9,1.9,0,0,0,1.26-.53,11.86,11.86,0,0,0,1.1-2.5l2.31-6.27q1.29-3.52,1.62-4.5L56.5,82c.06,0,.11.06.15.17Q58,86.36,58.25,87l2.25,6.32a12.86,12.86,0,0,0,1,2.37,1.17,1.17,0,0,0,.61.41,5.21,5.21,0,0,0,.78.1.2.2,0,0,1,.19.23.17.17,0,0,1-.19.19c-.95,0-1.72-.07-2.29-.07s-1.29,0-2.22.07a.17.17,0,0,1-.19-.19.2.2,0,0,1,.19-.23c.83-.07,1.3-.23,1.42-.49a1.07,1.07,0,0,0,.08-.41,6.61,6.61,0,0,0-.48-1.8ZM56,83.67l-.54,1.55L54.78,87l-1.11,3.16c.54,0,1.37,0,2.48,0,.89,0,1.58,0,2.08,0L57.12,87c-.16-.45-.39-1.12-.69-2C56.21,84.37,56.05,83.93,56,83.67Z"/><path d="M84.12,82.5c.06.74.16,1.81.32,3.23,0,0,0,.06,0,.09a.2.2,0,0,1-.17.19h-.11c-.08,0-.15-.07-.19-.2a5.18,5.18,0,0,0-1.68-2.39,4.84,4.84,0,0,0-2.9-.8,4.77,4.77,0,0,0-4.06,2.12A7.75,7.75,0,0,0,74,89.44a7,7,0,0,0,1.72,4.9A4.9,4.9,0,0,0,79.49,96a6.05,6.05,0,0,0,3.34-.89,6.33,6.33,0,0,0,1.89-2c.06-.11.12-.16.2-.16a.41.41,0,0,1,.16.05c.11,0,.16.11.16.19a.41.41,0,0,1-.08.19A6.16,6.16,0,0,1,79.45,97a6.25,6.25,0,0,1-5.11-2.38,7.79,7.79,0,0,1-1.68-5.1,7.54,7.54,0,0,1,2.14-5.62A6.38,6.38,0,0,1,79.48,82a9.29,9.29,0,0,1,2.32.27,7.56,7.56,0,0,0,1.7.28A3.31,3.31,0,0,0,84.12,82.5Z"/><path d="M97.53,96.63c-1.5,0-3.15-.08-4.94-.08s-3.4,0-4.81.08c-.1,0-.16-.06-.16-.19s.06-.23.16-.23c.8,0,1.28-.24,1.46-.55a2.49,2.49,0,0,0,.22-1.07c0-.22,0-.77,0-1.64V85.89c0-1,0-1.67,0-1.86a1.69,1.69,0,0,0-.17-.68c-.17-.32-.7-.52-1.58-.6-.1,0-.15-.1-.15-.23s0-.21.15-.21c1.17.06,1.93.1,2.27.1s1.19,0,2.26-.1a.18.18,0,0,1,.2.21.21.21,0,0,1-.2.23,4.76,4.76,0,0,0-.89.17.88.88,0,0,0-.52.41,7.4,7.4,0,0,0-.25,2.56V93c0,.86,0,1.38,0,1.57a2.25,2.25,0,0,0,.23,1,1,1,0,0,0,.83.46,9,9,0,0,0,1.14,0,13,13,0,0,0,2.71-.21,3.57,3.57,0,0,0,1.14-.47,4.92,4.92,0,0,0,1.47-2.14c0-.09.1-.13.16-.13l.13,0q.21.06.21.18a.25.25,0,0,1,0,.08C98.31,94.39,97.94,95.49,97.53,96.63Z"/><path d="M101.26,96.21a3.7,3.7,0,0,0,.85-.14.86.86,0,0,0,.51-.39,2.37,2.37,0,0,0,.25-1.08q0-.42,0-1.65V85.87c0-1.07,0-1.72,0-2a1.64,1.64,0,0,0-.2-.66,1.07,1.07,0,0,0-.66-.4l-.87-.11c-.1,0-.15-.1-.15-.23s0-.21.15-.21c1.11.06,1.87.1,2.29.1s1.21,0,2.22-.1a.18.18,0,0,1,.2.21.21.21,0,0,1-.19.23,6.32,6.32,0,0,0-.86.14,1.09,1.09,0,0,0-.54.37,2.51,2.51,0,0,0-.22,1.08c0,.22,0,.73,0,1.53V93c0,1.15,0,1.84,0,2.08a1.55,1.55,0,0,0,.19.65,1,1,0,0,0,.64.42,6.72,6.72,0,0,0,.84.11.21.21,0,0,1,.2.23c0,.13-.06.19-.2.19-.92,0-1.68-.07-2.28-.07s-1.3,0-2.17.07c-.12,0-.17-.06-.17-.19S101.14,96.23,101.26,96.21Z"/><path d="M111.48,84.27h-.18l0,8.68a8.22,8.22,0,0,0,.24,2.69c.15.32.62.51,1.39.57a.21.21,0,0,1,.17.23.17.17,0,0,1-.19.19c-1.12,0-1.79-.07-2-.07-.48,0-1.15,0-2,.07-.12,0-.17-.06-.17-.19s.05-.21.17-.23a2.54,2.54,0,0,0,.8-.15,1.1,1.1,0,0,0,.47-.44,7.4,7.4,0,0,0,.3-2.67l.06-7.06v-.64a4.3,4.3,0,0,0-.24-1.82,1.84,1.84,0,0,0-1.52-.68.22.22,0,0,1-.2-.25c0-.13.07-.19.2-.19.65,0,1.14.06,1.48.06l1.32,0c.43.75,1,1.55,1.56,2.42l5,7.21c.67,1,1.36,2,2.06,3l0-3.26,0-5.82a6.37,6.37,0,0,0-.3-2.61,1.13,1.13,0,0,0-.54-.4,3.48,3.48,0,0,0-.87-.13c-.1,0-.15-.09-.15-.23s0-.21.17-.21l2,.08c.31,0,1,0,2-.08.15,0,.23.06.23.19a.23.23,0,0,1-.23.25,3.57,3.57,0,0,0-.82.14.85.85,0,0,0-.37.34,7.11,7.11,0,0,0-.34,2.66L120.92,93q0,.8,0,1.68c0,.57,0,1.24,0,2a4.83,4.83,0,0,1-.62.35s-.09,0-.14-.1c-.3-.5-1.09-1.68-2.38-3.53Z"/><path d="M125.82,96.21a3.7,3.7,0,0,0,.85-.14.93.93,0,0,0,.51-.39,2.51,2.51,0,0,0,.25-1.08q0-.42,0-1.65V85.87c0-1.07,0-1.72,0-2a1.64,1.64,0,0,0-.2-.66,1.07,1.07,0,0,0-.66-.4l-.87-.11c-.1,0-.15-.1-.15-.23s0-.21.15-.21c1.11.06,1.87.1,2.29.1s1.21,0,2.22-.1a.18.18,0,0,1,.2.21.21.21,0,0,1-.19.23,6.32,6.32,0,0,0-.86.14,1.09,1.09,0,0,0-.54.37,2.64,2.64,0,0,0-.23,1.08c0,.22,0,.73,0,1.53V93c0,1.15,0,1.84,0,2.08a1.72,1.72,0,0,0,.2.65,1,1,0,0,0,.63.42,7.34,7.34,0,0,0,.84.11.22.22,0,0,1,.21.23c0,.13-.07.19-.2.19-.92,0-1.68-.07-2.28-.07s-1.3,0-2.17.07c-.12,0-.18-.06-.18-.19A.21.21,0,0,1,125.82,96.21Z"/><path d="M144.89,82.5c.05.74.15,1.81.31,3.23a.28.28,0,0,1,0,.09A.2.2,0,0,1,145,86h-.1c-.09,0-.15-.07-.2-.2a5.18,5.18,0,0,0-1.68-2.39,4.84,4.84,0,0,0-2.9-.8,4.77,4.77,0,0,0-4.06,2.12,7.75,7.75,0,0,0-1.36,4.69,7,7,0,0,0,1.72,4.9A4.9,4.9,0,0,0,140.25,96a6,6,0,0,0,3.34-.89,6.33,6.33,0,0,0,1.89-2c.06-.11.13-.16.2-.16a.41.41,0,0,1,.16.05c.11,0,.16.11.16.19a.41.41,0,0,1-.08.19A6.16,6.16,0,0,1,140.21,97a6.25,6.25,0,0,1-5.11-2.38,7.79,7.79,0,0,1-1.68-5.1,7.54,7.54,0,0,1,2.14-5.62A6.38,6.38,0,0,1,140.24,82a9.24,9.24,0,0,1,2.32.27,7.56,7.56,0,0,0,1.7.28A3.48,3.48,0,0,0,144.89,82.5Z"/><rect class="cls-1" x="51" width="10" height="50"/><rect class="cls-1" x="68" width="10" height="50"/><rect class="cls-1" x="85" width="10" height="50"/></g></g></svg>