<svg xmlns="http://www.w3.org/2000/svg" viewBox="0 0 179.3 23"><defs><style>.cls-1{fill:#4b4b4b;}</style></defs><g id="レイヤー_2" data-name="レイヤー 2"><g id="レイヤー_1-2" data-name="レイヤー 1"><path d="M40.49,18.13c.1-.22.48-1.27,1.15-3.13l2.14-6.09a7.91,7.91,0,0,0,.55-2.3.85.85,0,0,0-.06-.35.77.77,0,0,0-.49-.4,7.67,7.67,0,0,0-.84-.11.22.22,0,0,1-.2-.25c0-.13.07-.19.21-.19l2.21.1c.46,0,1.11,0,1.93-.1.11,0,.17.06.17.19s-.06.23-.18.25a2.09,2.09,0,0,0-1.28.56,11.23,11.23,0,0,0-1.18,2.6L42,16c-.69,1.87-1.12,3.08-1.3,3.62a3.4,3.4,0,0,1-.68.31c-.06,0-.11,0-.14-.12-.32-1-.76-2.33-1.32-3.89L36,8.91a10.6,10.6,0,0,0-1.21-2.72,2,2,0,0,0-1.29-.44c-.11,0-.17-.08-.17-.23s.06-.21.17-.21c.8.06,1.56.1,2.27.1.38,0,1.12,0,2.22-.1q.18,0,.18.21a.21.21,0,0,1-.2.23c-.85.09-1.33.25-1.43.48a.9.9,0,0,0,0,.31,8.67,8.67,0,0,0,.65,2.35l2.21,6C39.73,16,40.12,17.09,40.49,18.13Z"/><path d="M49.18,19.21a3.7,3.7,0,0,0,.85-.14.93.93,0,0,0,.51-.39,2.51,2.51,0,0,0,.25-1.08q0-.42,0-1.65V8.87c0-1.07,0-1.72,0-1.95a1.64,1.64,0,0,0-.2-.66,1.07,1.07,0,0,0-.66-.4l-.87-.11c-.1,0-.15-.1-.15-.23s.05-.21.15-.21c1.11.06,1.87.1,2.29.1s1.21,0,2.21-.1a.19.19,0,0,1,.21.21.21.21,0,0,1-.2.23,6.37,6.37,0,0,0-.85.14,1.09,1.09,0,0,0-.54.37,2.48,2.48,0,0,0-.23,1.08c0,.22,0,.73,0,1.53V16c0,1.15,0,1.84,0,2.08a1.56,1.56,0,0,0,.2.65,1,1,0,0,0,.63.42,7.34,7.34,0,0,0,.84.11.22.22,0,0,1,.21.23c0,.13-.07.19-.2.19-.92-.05-1.68-.07-2.28-.07s-1.3,0-2.17.07c-.12,0-.18-.06-.18-.19A.21.21,0,0,1,49.18,19.21Z"/><path d="M64.68,5.35q.09,1.53.24,3.12a.2.2,0,0,0,0,0c0,.08-.07.14-.21.16h0a.16.16,0,0,1-.17-.15,3.7,3.7,0,0,0-1.32-2.31,3.13,3.13,0,0,0-1.94-.62,2.68,2.68,0,0,0-2.19.88,2.46,2.46,0,0,0-.57,1.64A2.54,2.54,0,0,0,59,9.73a5.24,5.24,0,0,0,1.8,1.32l1,.5a10.49,10.49,0,0,1,2.57,1.64,3.48,3.48,0,0,1,1.13,2.57,4.19,4.19,0,0,1-1,2.88A4.66,4.66,0,0,1,60.86,20a9.06,9.06,0,0,1-3.4-.69,26.46,26.46,0,0,1-.74-3.22s0,0,0-.06.06-.12.19-.15H57c.07,0,.12.05.16.14a5.53,5.53,0,0,0,1.71,2.61,3.47,3.47,0,0,0,2.21.78,3.19,3.19,0,0,0,2.6-1.05,2.8,2.8,0,0,0,.64-1.85,3.19,3.19,0,0,0-.89-2.28,7.85,7.85,0,0,0-2.13-1.43l-.86-.44a7.87,7.87,0,0,1-2.21-1.5,3.17,3.17,0,0,1-.89-2.24A3.34,3.34,0,0,1,58.47,6a4.13,4.13,0,0,1,2.85-1,5,5,0,0,1,1.5.21,4.66,4.66,0,0,0,1.31.19A2.79,2.79,0,0,0,64.68,5.35Z"/><path d="M80.2,5.5c.06.74.16,1.81.32,3.23,0,0,0,.06,0,.09a.2.2,0,0,1-.17.19h-.11c-.08,0-.15-.07-.19-.2a5.18,5.18,0,0,0-1.68-2.39,5.21,5.21,0,0,0-7,1.32,7.81,7.81,0,0,0-1.35,4.69,7,7,0,0,0,1.72,4.9A4.88,4.88,0,0,0,75.56,19a6,6,0,0,0,3.34-.89,6.36,6.36,0,0,0,1.9-2c.06-.11.12-.16.19-.16a.41.41,0,0,1,.17.05c.1,0,.16.11.16.19a.41.41,0,0,1-.08.19A6.17,6.17,0,0,1,75.53,20a6.25,6.25,0,0,1-5.11-2.38,7.79,7.79,0,0,1-1.68-5.1,7.54,7.54,0,0,1,2.14-5.62A6.37,6.37,0,0,1,75.55,5a9.32,9.32,0,0,1,2.33.27,7.48,7.48,0,0,0,1.7.28A3.31,3.31,0,0,0,80.2,5.5Z"/><path d="M91.76,13.83c-.53,0-1.31-.05-2.31-.05-1.17,0-2.08,0-2.73.05l-.88,2.42a7.24,7.24,0,0,0-.53,2.08,1,1,0,0,0,.06.37.8.8,0,0,0,.54.4,7.18,7.18,0,0,0,.87.11.2.2,0,0,1,.2.23c0,.13-.06.19-.2.19-.77,0-1.43-.05-2-.05-.71,0-1.4,0-2.09.05-.12,0-.18-.06-.18-.19a.21.21,0,0,1,.18-.23A1.9,1.9,0,0,0,84,18.68a12.45,12.45,0,0,0,1.1-2.5l2.31-6.27Q88.66,6.39,89,5.41L89.8,5c.06,0,.1.06.14.17C90.85,8,91.39,9.58,91.54,10l2.26,6.32a12.86,12.86,0,0,0,1,2.37,1.13,1.13,0,0,0,.61.41,4.85,4.85,0,0,0,.77.1.21.21,0,0,1,.2.23c0,.13-.07.19-.2.19-1-.05-1.71-.07-2.28-.07s-1.29,0-2.22.07a.17.17,0,0,1-.19-.19.2.2,0,0,1,.19-.23c.83-.07,1.3-.23,1.42-.49a1.07,1.07,0,0,0,.08-.41,6.61,6.61,0,0,0-.48-1.8Zm-2.5-7.16c-.09.26-.27.78-.55,1.55L88.08,10,87,13.15c.55,0,1.38,0,2.49,0,.89,0,1.58,0,2.08,0L90.42,10c-.16-.45-.39-1.12-.69-2C89.51,7.37,89.35,6.93,89.26,6.67Z"/><path d="M117.42,5.5c0,.74.16,1.81.31,3.23a.28.28,0,0,1,0,.09.19.19,0,0,1-.16.19h-.11c-.08,0-.15-.07-.19-.2a5.18,5.18,0,0,0-1.68-2.39,5.21,5.21,0,0,0-7,1.32,7.81,7.81,0,0,0-1.35,4.69,7,7,0,0,0,1.71,4.9A4.92,4.92,0,0,0,112.78,19a6,6,0,0,0,3.34-.89,6.47,6.47,0,0,0,1.9-2c.06-.11.12-.16.19-.16a.45.45,0,0,1,.17.05c.1,0,.16.11.16.19a.41.41,0,0,1-.08.19A6.17,6.17,0,0,1,112.74,20a6.24,6.24,0,0,1-5.1-2.38,7.79,7.79,0,0,1-1.68-5.1,7.54,7.54,0,0,1,2.14-5.62A6.35,6.35,0,0,1,112.77,5a9.32,9.32,0,0,1,2.33.27,7.48,7.48,0,0,0,1.7.28A3.31,3.31,0,0,0,117.42,5.5Z"/><path d="M130.82,19.63c-1.49-.05-3.14-.08-4.94-.08s-3.39,0-4.8.08c-.11,0-.16-.06-.16-.19s0-.23.16-.23c.79-.05,1.28-.24,1.45-.55a2.47,2.47,0,0,0,.23-1.07c0-.22,0-.77,0-1.64V8.89c0-1.05,0-1.67,0-1.86a1.85,1.85,0,0,0-.18-.68c-.17-.32-.69-.52-1.57-.6a.21.21,0,0,1-.16-.23c0-.14.06-.21.16-.21,1.17.06,1.93.1,2.27.1s1.19,0,2.26-.1a.18.18,0,0,1,.2.21.21.21,0,0,1-.2.23,5.12,5.12,0,0,0-.9.17.91.91,0,0,0-.52.41,7.51,7.51,0,0,0-.24,2.56V16c0,.86,0,1.38,0,1.57a2.27,2.27,0,0,0,.22.95,1,1,0,0,0,.84.46,9,9,0,0,0,1.14,0,12.83,12.83,0,0,0,2.7-.21,3.72,3.72,0,0,0,1.15-.47,4.92,4.92,0,0,0,1.47-2.14c.05-.09.1-.13.16-.13l.12,0c.15,0,.22.1.22.18s0,.05,0,.08C131.6,17.39,131.24,18.49,130.82,19.63Z"/><path d="M134.56,19.21a3.7,3.7,0,0,0,.85-.14.93.93,0,0,0,.51-.39,2.51,2.51,0,0,0,.25-1.08q0-.42,0-1.65V8.87c0-1.07,0-1.72,0-1.95a1.81,1.81,0,0,0-.2-.66,1.07,1.07,0,0,0-.66-.4l-.87-.11c-.1,0-.15-.1-.15-.23s.05-.21.15-.21c1.11.06,1.87.1,2.29.1s1.21,0,2.21-.1a.19.19,0,0,1,.21.21.21.21,0,0,1-.2.23,7,7,0,0,0-.86.14,1.1,1.1,0,0,0-.53.37,2.48,2.48,0,0,0-.23,1.08c0,.22,0,.73,0,1.53V16c0,1.15,0,1.84,0,2.08a1.56,1.56,0,0,0,.2.65,1,1,0,0,0,.63.42,7.34,7.34,0,0,0,.84.11.22.22,0,0,1,.21.23c0,.13-.07.19-.2.19-.92-.05-1.68-.07-2.28-.07s-1.3,0-2.17.07c-.12,0-.18-.06-.18-.19A.21.21,0,0,1,134.56,19.21Z"/><path d="M144.78,7.27h-.18l0,8.68a8.22,8.22,0,0,0,.24,2.69q.22.48,1.38.57a.21.21,0,0,1,.18.23c0,.13-.07.19-.2.19-1.12-.05-1.79-.07-2-.07-.49,0-1.15,0-2,.07-.12,0-.18-.06-.18-.19a.2.2,0,0,1,.18-.23,2.61,2.61,0,0,0,.8-.15,1.15,1.15,0,0,0,.47-.44,7.65,7.65,0,0,0,.3-2.67l.06-7.06V8.25a4.3,4.3,0,0,0-.24-1.82,1.87,1.87,0,0,0-1.53-.68c-.13,0-.19-.1-.19-.25a.17.17,0,0,1,.19-.19c.65,0,1.15.06,1.49.06l1.32,0c.42.75,1,1.55,1.56,2.42l5,7.21,2.06,3,0-3.26,0-5.82a6.12,6.12,0,0,0-.31-2.61,1.06,1.06,0,0,0-.53-.4,3.48,3.48,0,0,0-.87-.13c-.11,0-.16-.09-.16-.23s.06-.21.18-.21l2,.08c.31,0,1,0,2-.08.15,0,.23.06.23.19a.23.23,0,0,1-.23.25,3.46,3.46,0,0,0-.82.14.8.8,0,0,0-.37.34,6.9,6.9,0,0,0-.34,2.66L154.22,16q0,.8,0,1.68c0,.57,0,1.24,0,2a4.83,4.83,0,0,1-.62.35.19.19,0,0,1-.14-.1c-.3-.5-1.09-1.68-2.38-3.53Z"/><path d="M159.12,19.21a3.81,3.81,0,0,0,.85-.14.87.87,0,0,0,.5-.39,2.35,2.35,0,0,0,.26-1.08q0-.42,0-1.65V8.87c0-1.07,0-1.72,0-1.95a1.83,1.83,0,0,0-.21-.66,1,1,0,0,0-.65-.4L159,5.75a.21.21,0,0,1-.16-.23c0-.14.06-.21.16-.21,1.11.06,1.87.1,2.29.1s1.21,0,2.21-.1a.19.19,0,0,1,.21.21.21.21,0,0,1-.2.23,7,7,0,0,0-.86.14,1.1,1.1,0,0,0-.53.37,2.48,2.48,0,0,0-.23,1.08c0,.22,0,.73,0,1.53V16c0,1.15,0,1.84,0,2.08a1.56,1.56,0,0,0,.2.65.94.94,0,0,0,.63.42,7.34,7.34,0,0,0,.84.11.22.22,0,0,1,.21.23c0,.13-.07.19-.2.19-.92-.05-1.69-.07-2.28-.07s-1.3,0-2.17.07c-.12,0-.18-.06-.18-.19A.21.21,0,0,1,159.12,19.21Z"/><path d="M178.18,5.5c.06.74.16,1.81.32,3.23,0,0,0,.06,0,.09a.2.2,0,0,1-.17.19h-.11c-.08,0-.15-.07-.19-.2a5.18,5.18,0,0,0-1.68-2.39,5.21,5.21,0,0,0-7,1.32A7.81,7.81,0,0,0,168,12.44a7,7,0,0,0,1.72,4.9A4.88,4.88,0,0,0,173.54,19a6,6,0,0,0,3.34-.89,6.36,6.36,0,0,0,1.9-2c.06-.11.12-.16.19-.16a.41.41,0,0,1,.17.05c.1,0,.16.11.16.19a.41.41,0,0,1-.08.19A6.16,6.16,0,0,1,173.51,20a6.25,6.25,0,0,1-5.11-2.38,7.79,7.79,0,0,1-1.68-5.1,7.54,7.54,0,0,1,2.14-5.62A6.38,6.38,0,0,1,173.54,5a9.29,9.29,0,0,1,2.32.27,7.48,7.48,0,0,0,1.7.28A3.31,3.31,0,0,0,178.18,5.5Z"/><rect class="cls-1" width="6" height="23"/><rect class="cls-1" x="9" width="6" height="23"/><rect class="cls-1" x="18" width="6" height="23"/></g></g></svg>