<svg xmlns="http://www.w3.org/2000/svg" width="315" height="300" xmlns:v="https://vecta.io/nano"><path d="M280.344 206.351c-32.925 38.024-106.58 84.335-123.338 91.413s-14.282-4.506-13.597-8.478l2.239-13.491c.531-4.022 1.077-10.252-.509-14.222-1.765-4.376-8.721-6.671-13.832-7.769C55.86 243.805.004 190.897.004 127.748.004 57.307 70.443-.006 157.006-.006c86.573 0 156.998 57.313 156.998 127.754 0 28.198-10.896 53.594-33.66 78.603zM95.547 153.146H72.581V98.841c0-4.545-3.687-8.258-8.229-8.258-4.533 0-8.225 3.713-8.225 8.258v62.557c0 4.562 3.692 8.262 8.225 8.262h31.195c4.545 0 8.23-3.7 8.23-8.262 0-4.547-3.685-8.252-8.23-8.252zm32.263-54.305c0-4.545-3.69-8.258-8.227-8.258s-8.227 3.713-8.227 8.258v62.557c0 4.562 3.69 8.262 8.227 8.262s8.227-3.7 8.227-8.262V98.841zm75.098 0c0-4.545-3.689-8.258-8.232-8.258s-8.234 3.713-8.234 8.258v38.718l-31.976-43.665a8.23 8.23 0 0 0-6.574-3.311c-.885 0-1.765.147-2.61.427-3.366 1.132-5.632 4.277-5.632 7.831v62.557c0 4.562 3.695 8.262 8.235 8.262s8.229-3.7 8.229-8.262v-38.693l31.976 43.649a8.23 8.23 0 0 0 6.577 3.306c.879 0 1.767-.139 2.612-.424 3.371-1.122 5.629-4.27 5.629-7.838V98.841zm50.477 39.54c4.542 0 8.232-3.707 8.232-8.252a8.25 8.25 0 0 0-8.232-8.257h-22.959v-14.769h22.959c4.542 0 8.232-3.705 8.232-8.262 0-4.545-3.69-8.258-8.232-8.258h-31.198c-4.537 0-8.232 3.713-8.232 8.258v.037 31.231.04 31.249a8.26 8.26 0 0 0 8.232 8.262h31.198c4.53 0 8.232-3.7 8.232-8.262 0-4.547-3.702-8.252-8.232-8.252h-22.959v-14.765h22.959z" fill="#fff"/></svg>